<?xml version="1.0" encoding="UTF-8"?>
<svg id="Layer_1" data-name="Layer 1" xmlns="http://www.w3.org/2000/svg" viewBox="0 0 1238.96 872.26">
  <defs>
    <style>
      .cls-1, .cls-2 {
        stroke-width: 0px;
      }

      .cls-3 {
        stroke: #000;
      }

      .cls-3, .cls-4, .cls-5 {
        fill: none;
        stroke-miterlimit: 10;
      }

      .cls-3, .cls-5 {
        stroke-width: 8px;
      }

      .cls-4 {
        stroke-width: 8.56px;
      }

      .cls-4, .cls-5 {
        stroke: #0000f4;
      }

      .cls-2 {
        fill: #0000f4;
      }
    </style>
  </defs>
  <g>
    <line class="cls-5" x1="899.99" y1="445.98" x2="568" y2="108.56"/>
    <polygon class="cls-2" points="587.38 105.06 533.21 73.2 564.19 127.88 587.38 105.06"/>
  </g>
  <g>
    <line class="cls-3" x1="968.24" y1="448.37" x2="636.26" y2="110.95"/>
    <polygon class="cls-1" points="655.64 107.45 601.46 75.58 632.44 130.27 655.64 107.45"/>
  </g>
  <g>
    <line class="cls-3" x1="1126.98" y1="313.26" x2="1126.98" y2="49.61"/>
    <polygon class="cls-1" points="1143.25 60.71 1126.98 0 1110.71 60.71 1143.25 60.71"/>
  </g>
  <g>
    <line class="cls-5" x1="1173.96" y1="342.95" x2="1173.96" y2="79.3"/>
    <polygon class="cls-2" points="1190.23 90.4 1173.96 29.69 1157.69 90.4 1190.23 90.4"/>
  </g>
  <g>
    <g>
      <path class="cls-4" d="M647.71,795.93c.89,6.77,3,16.46,8.38,26.94,5.95,11.6,13.14,18.77,15.29,20.85,5.92,5.7,11.38,9.07,14.88,11.21,8.73,5.33,16.02,7.85,17.55,8.37,8.83,3,16.1,3.78,19.13,4.04,2.91.24,11.93.84,23.34-1.51,8.35-1.72,14.46-4.3,16.91-5.39,2.36-1.05,9.05-4.17,16.61-9.97,6.45-4.94,10.6-9.58,11.88-11.04,1.13-1.29,5.33-6.18,9.52-13.54.89-1.56,3.78-6.75,6.46-14.11.94-2.6,2.25-6.23,3.33-10.93"/>
      <polygon class="cls-2" points="819.98 808.05 811.72 770.51 800.1 807.15 819.98 808.05"/>
    </g>
    <g>
      <path class="cls-4" d="M679.03,796.32c.89,6.77,3,16.46,8.38,26.94,5.95,11.6,13.14,18.77,15.29,20.85,5.92,5.7,11.38,9.07,14.88,11.21,8.73,5.33,16.02,7.85,17.55,8.37,8.83,3,16.1,3.78,19.13,4.04,2.91.24,11.93.84,23.34-1.51,8.35-1.72,14.46-4.3,16.91-5.39,2.36-1.05,9.05-4.17,16.61-9.97,6.45-4.94,10.6-9.58,11.88-11.04,1.13-1.29,5.33-6.18,9.52-13.54.89-1.56,3.78-6.75,6.46-14.11.94-2.6,2.25-6.23,3.33-10.93"/>
      <polygon class="cls-2" points="851.31 808.44 843.04 770.9 831.42 807.55 851.31 808.44"/>
    </g>
  </g>
</svg>