<?xml version="1.0" encoding="UTF-8"?>
<svg id="Layer_1" data-name="Layer 1" xmlns="http://www.w3.org/2000/svg" viewBox="0 0 480 480">
  <defs>
    <style>
      .cls-1 {
        stroke: #0000f4;
      }

      .cls-1, .cls-2 {
        fill: none;
        stroke-miterlimit: 10;
        stroke-width: 8.56px;
      }

      .cls-3, .cls-4 {
        stroke-width: 0px;
      }

      .cls-2 {
        stroke: #000;
      }

      .cls-4 {
        fill: #0000f4;
      }
    </style>
  </defs>
  <g>
    <path class="cls-2" d="M33.6,168.65c1.15,14.61,4.6,35.61,14.94,58.66,11.46,25.53,26.06,41.7,30.43,46.38,12.04,12.87,23.37,20.71,30.64,25.69,18.11,12.39,33.46,18.61,36.68,19.9,18.59,7.41,34.07,9.91,40.55,10.79,6.2.85,25.48,3.13,50.19-.63,18.09-2.76,31.46-7.59,36.83-9.66,5.19-2,19.86-7.93,36.71-19.5,14.38-9.87,23.79-19.34,26.69-22.33,2.57-2.65,12.11-12.65,21.91-27.94,2.07-3.23,8.86-14.05,15.41-29.51,3.16-7.46,7.97-18.99,11.3-34.9"/>
    <polygon class="cls-3" points="401.7 198.36 387.87 132.53 366.93 196.45 401.7 198.36"/>
  </g>
  <g>
    <path class="cls-1" d="M90.6,168.65c1.15,14.61,4.6,35.61,14.94,58.66,11.46,25.53,26.06,41.7,30.43,46.38,12.04,12.87,23.37,20.71,30.64,25.69,18.11,12.39,33.46,18.61,36.68,19.9,18.59,7.41,34.07,9.91,40.55,10.79,6.2.85,25.48,3.13,50.19-.63,18.09-2.76,31.46-7.59,36.83-9.66,5.19-2,19.86-7.93,36.71-19.5,14.38-9.87,23.79-19.34,26.69-22.33,2.57-2.65,12.11-12.65,21.91-27.94,2.07-3.23,8.86-14.05,15.41-29.51,3.16-7.46,7.97-18.99,11.3-34.9"/>
    <polygon class="cls-4" points="458.7 198.36 444.87 132.53 423.92 196.45 458.7 198.36"/>
  </g>
</svg>