<?xml version="1.0" encoding="UTF-8"?>
<svg id="Layer_1" data-name="Layer 1" xmlns="http://www.w3.org/2000/svg" viewBox="0 0 480 480">
  <defs>
    <style>
      .cls-1 {
        fill: none;
        stroke: #fff;
        stroke-miterlimit: 10;
        stroke-width: 8px;
      }

      .cls-2 {
        fill: #fff;
        stroke-width: 0px;
      }
    </style>
  </defs>
  <g>
    <path class="cls-1" d="M378.9,212.7c-2.05-14.19-6.74-34.47-18.3-56.32-12.81-24.2-28.08-39.06-32.65-43.35-12.57-11.8-24.12-18.74-31.53-23.13-18.46-10.94-33.84-16.05-37.07-17.1-18.62-6.05-33.88-7.51-40.27-7.97-6.11-.44-25.07-1.44-48.95,3.8-17.48,3.84-30.23,9.4-35.34,11.76-4.94,2.28-18.88,9-34.6,21.36-13.41,10.55-22,20.39-24.64,23.49-2.34,2.75-11.02,13.12-19.62,28.66-1.82,3.29-7.76,14.27-13.18,29.78-2.68,7.68-6.79,19.65-8.99,36.04-.05.37-.1.74-.14,1.1"/>
    <polygon class="cls-2" points="18.06 209.99 35.35 270.41 50.6 209.44 18.06 209.99"/>
  </g>
  <g>
    <path class="cls-1" d="M35.35,271.56c2.05,14.19,6.74,34.47,18.3,56.32,12.81,24.2,28.08,39.06,32.65,43.35,12.57,11.8,24.12,18.74,31.53,23.13,18.46,10.94,33.84,16.05,37.07,17.1,18.62,6.05,33.88,7.51,40.27,7.97,6.11.44,25.07,1.44,48.95-3.8,17.48-3.84,30.23-9.4,35.34-11.76,4.94-2.28,18.88-9,34.6-21.36,13.41-10.55,22-20.39,24.64-23.49,2.34-2.75,11.02-13.12,19.62-28.66,1.82-3.29,7.76-14.27,13.18-29.78,2.68-7.68,6.79-19.65,8.99-36.04.05-.37.1-.74.14-1.1"/>
    <polygon class="cls-2" points="396.19 274.27 378.9 213.84 363.65 274.82 396.19 274.27"/>
  </g>
  <g>
    <path class="cls-1" d="M444.65,212.7c-2.05-14.19-6.74-34.47-18.3-56.32-12.81-24.2-28.08-39.06-32.65-43.35-12.57-11.8-24.12-18.74-31.53-23.13-18.46-10.94-33.84-16.05-37.07-17.1-18.62-6.05-33.88-7.51-40.27-7.97-6.11-.44-25.07-1.44-48.95,3.8-17.48,3.84-30.23,9.4-35.34,11.76-4.94,2.28-18.88,9-34.6,21.36-13.41,10.55-22,20.39-24.64,23.49-2.34,2.75-11.02,13.12-19.62,28.66-1.82,3.29-7.76,14.27-13.18,29.78-2.68,7.68-6.79,19.65-8.99,36.04-.05.37-.1.74-.14,1.1"/>
    <polygon class="cls-2" points="83.81 209.99 101.1 270.41 116.35 209.44 83.81 209.99"/>
  </g>
  <g>
    <path class="cls-1" d="M101.1,271.56c2.05,14.19,6.74,34.47,18.3,56.32,12.81,24.2,28.08,39.06,32.65,43.35,12.57,11.8,24.12,18.74,31.53,23.13,18.46,10.94,33.84,16.05,37.07,17.1,18.62,6.05,33.88,7.51,40.27,7.97,6.11.44,25.07,1.44,48.95-3.8,17.48-3.84,30.23-9.4,35.34-11.76,4.94-2.28,18.88-9,34.6-21.36,13.41-10.55,22-20.39,24.64-23.49,2.34-2.75,11.02-13.12,19.62-28.66,1.82-3.29,7.76-14.27,13.18-29.78,2.68-7.68,6.79-19.65,8.99-36.04.05-.37.1-.74.14-1.1"/>
    <polygon class="cls-2" points="461.94 274.27 444.65 213.84 429.4 274.82 461.94 274.27"/>
  </g>
</svg>