<?xml version="1.0" encoding="UTF-8"?>
<svg id="Layer_1" data-name="Layer 1" xmlns="http://www.w3.org/2000/svg" viewBox="0 0 480 480">
  <defs>
    <style>
      .cls-1 {
        fill: none;
        stroke: #fff;
        stroke-miterlimit: 10;
        stroke-width: 8px;
      }

      .cls-2 {
        fill: #fff;
        stroke-width: 0px;
      }
    </style>
  </defs>
  <g>
    <path class="cls-1" d="M379.39,204.25c-2.57-14.1-8.01-34.2-20.37-55.6-13.69-23.71-29.5-37.99-34.23-42.11-13-11.33-24.8-17.84-32.37-21.95-18.86-10.26-34.41-14.79-37.67-15.72-18.83-5.36-34.14-6.26-40.54-6.48-6.12-.21-25.11-.52-48.78,5.6-17.33,4.48-29.86,10.51-34.88,13.06-4.85,2.46-18.54,9.69-33.79,22.62-13.02,11.04-21.23,21.19-23.76,24.38-2.24,2.83-10.53,13.52-18.55,29.37-1.7,3.35-7.23,14.55-12.07,30.25-2.4,7.78-6.06,19.89-7.65,36.34-.04.37-.07.74-.1,1.11"/>
    <polygon class="cls-2" points="18.69 214.86 38.2 274.6 51.19 213.11 18.69 214.86"/>
  </g>
  <g>
    <path class="cls-1" d="M38.24,275.75c2.57,14.1,8.01,34.2,20.37,55.6,13.69,23.71,29.5,37.99,34.23,42.11,13,11.33,24.8,17.84,32.37,21.95,18.86,10.26,34.41,14.79,37.67,15.72,18.83,5.36,34.14,6.26,40.54,6.48,6.12.21,25.11.52,48.78-5.6,17.33-4.48,29.86-10.51,34.88-13.06,4.85-2.46,18.54-9.69,33.79-22.62,13.02-11.04,21.23-21.19,23.76-24.38,2.24-2.83,10.53-13.52,18.55-29.37,1.7-3.35,7.23-14.55,12.07-30.25,2.4-7.78,6.06-19.89,7.65-36.34.04-.37.07-.74.1-1.11"/>
    <polygon class="cls-2" points="398.93 265.14 379.43 205.4 366.44 266.89 398.93 265.14"/>
  </g>
  <g>
    <path class="cls-1" d="M441.76,204.25c-2.57-14.1-8.01-34.2-20.37-55.6-13.69-23.71-29.5-37.99-34.23-42.11-13-11.33-24.8-17.84-32.37-21.95-18.86-10.26-34.41-14.79-37.67-15.72-18.83-5.36-34.14-6.26-40.54-6.48-6.12-.21-25.11-.52-48.78,5.6-17.33,4.48-29.86,10.51-34.88,13.06-4.85,2.46-18.54,9.69-33.79,22.62-13.02,11.04-21.23,21.19-23.76,24.38-2.24,2.83-10.53,13.52-18.55,29.37-1.7,3.35-7.23,14.55-12.07,30.25-2.4,7.78-6.06,19.89-7.65,36.34-.04.37-.07.74-.1,1.11"/>
    <polygon class="cls-2" points="81.07 214.86 100.57 274.6 113.56 213.11 81.07 214.86"/>
  </g>
  <g>
    <path class="cls-1" d="M100.61,275.75c2.57,14.1,8.01,34.2,20.37,55.6,13.69,23.71,29.5,37.99,34.23,42.11,13,11.33,24.8,17.84,32.37,21.95,18.86,10.26,34.41,14.79,37.67,15.72,18.83,5.36,34.14,6.26,40.54,6.48,6.12.21,25.11.52,48.78-5.6,17.33-4.48,29.86-10.51,34.88-13.06,4.85-2.46,18.54-9.69,33.79-22.62,13.02-11.04,21.23-21.19,23.76-24.38,2.24-2.83,10.53-13.52,18.55-29.37,1.7-3.35,7.23-14.55,12.07-30.25,2.4-7.78,6.06-19.89,7.65-36.34.04-.37.07-.74.1-1.11"/>
    <polygon class="cls-2" points="461.31 265.14 441.8 205.4 428.81 266.89 461.31 265.14"/>
  </g>
</svg>