<?xml version="1.0" encoding="UTF-8"?>
<svg id="Layer_1" data-name="Layer 1" xmlns="http://www.w3.org/2000/svg" viewBox="0 0 480 240">
  <defs>
    <style>
      .cls-1, .cls-2, .cls-3 {
        stroke-width: 0px;
      }

      .cls-4 {
        fill: none;
        stroke: #fff;
        stroke-miterlimit: 10;
        stroke-width: 8px;
      }

      .cls-2 {
        fill: #fff;
      }

      .cls-3 {
        fill: #0000f4;
      }
    </style>
  </defs>
  <rect class="cls-3" width="480" height="240"/>
  <g>
    <line class="cls-1" x1="43.04" y1="192.08" x2="42.84" y2="24.24"/>
    <g>
      <line class="cls-4" x1="43.04" y1="192.08" x2="42.88" y2="59.67"/>
      <polygon class="cls-2" points="54.51 67.59 42.84 24.24 31.27 67.61 54.51 67.59"/>
    </g>
  </g>
  <g>
    <line class="cls-1" x1="108.89" y1="128.59" x2="141.97" y2="195.76"/>
    <g>
      <line class="cls-4" x1="108.89" y1="128.59" x2="126.32" y2="163.97"/>
      <polygon class="cls-2" points="112.39 161.99 141.97 195.76 133.24 151.73 112.39 161.99"/>
    </g>
  </g>
  <g>
    <line class="cls-1" x1="252.43" y1="12.19" x2="174.33" y2="227.81"/>
    <g>
      <line class="cls-4" x1="252.43" y1="12.19" x2="186.4" y2="194.49"/>
      <polygon class="cls-2" points="178.18 183.08 174.33 227.81 200.03 191 178.18 183.08"/>
    </g>
  </g>
  <g>
    <line class="cls-1" x1="309.3" y1="12.19" x2="231.35" y2="227.81"/>
    <g>
      <line class="cls-4" x1="297.25" y1="45.52" x2="231.35" y2="227.81"/>
      <polygon class="cls-2" points="283.62 49.02 309.3 12.19 305.48 56.92 283.62 49.02"/>
    </g>
  </g>
  <g>
    <line class="cls-1" x1="350.81" y1="24.03" x2="350.61" y2="192.28"/>
    <g>
      <line class="cls-4" x1="350.81" y1="24.03" x2="350.65" y2="156.84"/>
      <polygon class="cls-2" points="339.04 148.9 350.61 192.28 362.28 148.93 339.04 148.9"/>
    </g>
  </g>
  <g>
    <line class="cls-4" x1="361.63" y1="183.09" x2="406.64" y2="183.09"/>
    <polygon class="cls-2" points="398.72 194.71 442.08 183.09 398.72 171.47 398.72 194.71"/>
  </g>
  <path class="cls-4" d="M57.91,49.14c8.64-.05,15.25-.12,19.36-.17,2.03-.02,8.2-.1,16.13.34,3.72.21,6.6.46,10.14,1.37,2.55.65,5.44,1.42,8.67,3.43,3.44,2.15,5.44,4.57,6.45,5.83,1.05,1.3,2.58,3.22,3.69,6.09,1.22,3.15,1.27,5.75,1.29,8.14.02,2.57.06,6.07-1.66,10.29-2.04,5-5.31,7.97-5.99,8.57-3.11,2.75-6.21,3.97-8.39,4.8-4.3,1.64-7.75,1.97-12.82,2.4-2.49.21-6.58.23-14.66.26-3.41.01-5.38,0-11.16,0-4.67,0-8.48,0-10.97,0"/>
  <path class="cls-4" d="M57.91,33.94c10.73-.08,18.93-.19,24.04-.27,2.51-.04,10.18-.16,20.03.55,4.62.33,8.19.74,12.59,2.19,3.17,1.04,6.76,2.26,10.76,5.47,4.27,3.42,6.75,7.29,8.01,9.29,1.31,2.08,3.2,5.13,4.58,9.7,1.52,5.03,1.57,9.17,1.6,12.98.03,4.1.07,9.68-2.06,16.4-2.53,7.98-6.59,12.7-7.44,13.67-3.86,4.38-7.71,6.33-10.42,7.65-5.33,2.62-9.63,3.13-15.91,3.83-3.09.34-8.17.37-18.2.41-4.23.02-6.67,0-13.85,0-5.8,0-10.53,0-13.62,0"/>
</svg>