<svg width="1860" height="288" viewBox="0 0 1860 288" fill="none" xmlns="http://www.w3.org/2000/svg">
<path d="M2 2H282.96V282.96H2V2Z" fill="white" stroke="black" stroke-width="4"/>
<path d="M143.154 236.799C194.873 236.799 236.8 194.873 236.8 143.153C236.8 91.4341 194.873 49.5073 143.154 49.5073C91.4346 49.5073 49.5078 91.4341 49.5078 143.153C49.5078 194.873 91.4346 236.799 143.154 236.799Z" fill="#1D1D1B" stroke="#1D1D1B" stroke-width="1.55" stroke-miterlimit="10"/>
<path d="M142.47 191.314C168.702 191.314 189.967 170.049 189.967 143.817C189.967 117.585 168.702 96.3203 142.47 96.3203C116.239 96.3203 94.9736 117.585 94.9736 143.817C94.9736 170.049 116.239 191.314 142.47 191.314Z" fill="white" stroke="white" stroke-width="1.55" stroke-miterlimit="10"/>
<path d="M142.47 158.858C151.521 158.858 158.858 151.521 158.858 142.47C158.858 133.418 151.521 126.081 142.47 126.081C133.418 126.081 126.081 133.418 126.081 142.47C126.081 151.521 133.418 158.858 142.47 158.858Z" fill="#1D1D1B" stroke="#1D1D1B" stroke-width="4" stroke-miterlimit="10"/>
<path d="M316 10H590V284H316V10Z" fill="white" stroke="black" stroke-width="4"/>
<path d="M363.12 40.9561H550.452V82.4402C550.452 150.347 509.31 180.389 456.122 180.128C404.685 179.867 364.729 143.731 363.381 84.8533C363.08 71.481 363.12 54.3886 363.12 40.9561Z" stroke="#1D1D1B" stroke-width="4" stroke-miterlimit="10"/>
<path d="M457.45 180.711V236.151" stroke="#1D1D1B" stroke-width="4" stroke-miterlimit="10"/>
<path d="M363.12 236.151H550.452" stroke="#1D1D1B" stroke-width="4" stroke-miterlimit="10"/>
<path d="M550.452 57.3445C559.503 57.3445 566.841 50.0071 566.841 40.9559C566.841 31.9048 559.503 24.5674 550.452 24.5674C541.401 24.5674 534.063 31.9048 534.063 40.9559C534.063 50.0071 541.401 57.3445 550.452 57.3445Z" fill="#1D1D1B" stroke="#1D1D1B" stroke-width="4" stroke-miterlimit="10"/>
<path d="M364.568 94.2038C364.568 141.982 406.173 180.691 457.511 180.691C508.848 180.691 550.453 141.962 550.453 94.2038C550.453 94.1234 550.453 94.0228 550.453 93.9424H364.568C364.568 93.9424 364.568 94.1234 364.568 94.2038Z" fill="#1D1D1B"/>
<path opacity="0.96" d="M631 10H909V284H631V10Z" fill="white" stroke="black" stroke-width="4"/>
<path d="M720.183 101.173C729.244 101.173 736.589 93.8277 736.589 84.767C736.589 75.7064 729.244 68.3613 720.183 68.3613C711.122 68.3613 703.777 75.7064 703.777 84.767C703.777 93.8277 711.122 101.173 720.183 101.173Z" fill="#1D1D1B" stroke="#1D1D1B" stroke-width="4" stroke-miterlimit="10"/>
<path d="M832.319 101.132C841.379 101.132 848.724 93.7871 848.724 84.7265C848.724 75.6659 841.379 68.3208 832.319 68.3208C823.258 68.3208 815.913 75.6659 815.913 84.7265C815.913 93.7871 823.258 101.132 832.319 101.132Z" fill="#1D1D1B" stroke="#1D1D1B" stroke-width="4" stroke-miterlimit="10"/>
<path d="M720.183 213.308C729.244 213.308 736.589 205.963 736.589 196.903C736.589 187.842 729.244 180.497 720.183 180.497C711.122 180.497 703.777 187.842 703.777 196.903C703.777 205.963 711.122 213.308 720.183 213.308Z" fill="#1D1D1B" stroke="#1D1D1B" stroke-width="4" stroke-miterlimit="10"/>
<path d="M832.319 213.308C841.379 213.308 848.724 205.963 848.724 196.903C848.724 187.842 841.379 180.497 832.319 180.497C823.258 180.497 815.913 187.842 815.913 196.903C815.913 205.963 823.258 213.308 832.319 213.308Z" fill="#1D1D1B" stroke="#1D1D1B" stroke-width="4" stroke-miterlimit="10"/>
<path d="M663.924 84.5854C665.518 55.2852 683.175 28.6083 720.728 28.5679C756.203 28.5276 773.457 56.3143 776.342 84.1818C781.932 138 822.25 139.977 833.55 140.583C844.588 141.188 884.785 132.814 889.265 84.767" stroke="#1D1D1B" stroke-width="4" stroke-miterlimit="10"/>
<path d="M663.924 196.883C665.518 167.583 683.175 140.906 720.728 140.865C756.203 140.825 773.457 168.612 776.342 196.479C781.932 250.297 822.25 252.275 833.55 252.88C844.588 253.485 884.785 245.111 889.265 197.064" stroke="#1D1D1B" stroke-width="4" stroke-miterlimit="10"/>
<path d="M947.583 3.89941H1227.96V284.276H947.583V3.89941Z" fill="white" stroke="black" stroke-width="4"/>
<path d="M1181.9 50.2007H1087.77V236.447H1181.9V50.2007Z" fill="#1D1D1B" stroke="#1D1D1B" stroke-width="4" stroke-miterlimit="10"/>
<path d="M998.329 94.9424C998.751 68.8212 1020.69 48.4914 1045.06 49.5571C1067.36 50.5224 1086.42 69.1832 1087.79 92.9516C1088.01 141.011 1088.23 189.071 1088.46 237.131H997.665C997.886 189.735 998.107 142.338 998.329 94.9424Z" stroke="#1D1D1B" stroke-width="4" stroke-miterlimit="10"/>
<path d="M1043.05 66.5487C1052.08 66.5487 1059.4 59.2293 1059.4 50.2004C1059.4 41.1714 1052.08 33.8521 1043.05 33.8521C1034.02 33.8521 1026.7 41.1714 1026.7 50.2004C1026.7 59.2293 1034.02 66.5487 1043.05 66.5487Z" fill="#1D1D1B" stroke="#1D1D1B" stroke-width="4" stroke-miterlimit="10"/>
<path d="M1134.85 66.5487C1143.88 66.5487 1151.19 59.2293 1151.19 50.2004C1151.19 41.1714 1143.88 33.8521 1134.85 33.8521C1125.82 33.8521 1118.5 41.1714 1118.5 50.2004C1118.5 59.2293 1125.82 66.5487 1134.85 66.5487Z" fill="white" stroke="#1D1D1B" stroke-width="4" stroke-miterlimit="10"/>
<path d="M1261.42 4H1545.42V284H1261.42V4Z" fill="white" stroke="black" stroke-width="4"/>
<path d="M1493.1 50.6875H1308.15V235.639H1493.1V50.6875Z" stroke="#1D1D1B" stroke-width="4" stroke-miterlimit="10"/>
<path d="M1400.63 50.6875H1308.15V234.958H1400.63V50.6875Z" fill="#1D1D1B" stroke="#1D1D1B" stroke-width="4" stroke-miterlimit="10"/>
<path d="M1493.1 142.823L1396 143.163" stroke="#1D1D1B" stroke-width="4" stroke-miterlimit="10"/>
<path d="M1493.1 50.6875L1400.63 142.823" stroke="#1D1D1B" stroke-width="4" stroke-miterlimit="10"/>
<path d="M1400.63 50.6875L1493.1 142.823" stroke="#1D1D1B" stroke-width="4" stroke-miterlimit="10"/>
<path d="M1400.63 234.958L1493.1 142.823" stroke="#1D1D1B" stroke-width="4" stroke-miterlimit="10"/>
<path d="M1493.1 235.639L1401.27 143.584" stroke="#1D1D1B" stroke-width="4" stroke-miterlimit="10"/>
<path d="M1375.18 159.775C1384.12 159.775 1391.37 152.526 1391.37 143.584C1391.37 134.642 1384.12 127.394 1375.18 127.394C1366.24 127.394 1358.99 134.642 1358.99 143.584C1358.99 152.526 1366.24 159.775 1375.18 159.775Z" fill="white" stroke="white" stroke-width="4" stroke-miterlimit="10"/>
<path d="M1858 2H1574V286H1858V2Z" fill="white" stroke="black" stroke-width="4" stroke-miterlimit="10"/>
<path d="M1670.7 98.0808H1621.98V144.306H1811.55V98.0808H1716.77V51.856H1670.7V73.0615" stroke="#1D1D1B" stroke-width="4" stroke-miterlimit="10"/>
<path d="M1760.41 144.206H1670.7V236.776H1760.41V144.206Z" fill="#1D1D1B" stroke="#1D1D1B" stroke-width="4" stroke-miterlimit="10"/>
<path d="M1714.35 114.314C1723.32 114.314 1730.58 107.046 1730.58 98.0808C1730.58 89.1152 1723.32 81.8472 1714.35 81.8472C1705.38 81.8472 1698.12 89.1152 1698.12 98.0808C1698.12 107.046 1705.38 114.314 1714.35 114.314Z" fill="#1D1D1B" stroke="#1D1D1B" stroke-width="4" stroke-miterlimit="10"/>
</svg>
