<svg width="1857" height="284" viewBox="0 0 1857 284" fill="none" xmlns="http://www.w3.org/2000/svg">
<path d="M282.455 1H0.543945V282.911H282.455V1Z" fill="black"/>
<path d="M142.163 235.276C193.336 235.276 234.82 193.792 234.82 142.619C234.82 91.4458 193.336 49.9618 142.163 49.9618C90.9899 49.9618 49.5059 91.4458 49.5059 142.619C49.5059 193.792 90.9899 235.276 142.163 235.276Z" fill="white" stroke="white" stroke-width="1.56" stroke-miterlimit="10"/>
<path d="M141.51 190.254C167.458 190.254 188.492 169.22 188.492 143.272C188.492 117.325 167.458 96.2904 141.51 96.2904C115.563 96.2904 94.5283 117.325 94.5283 143.272C94.5283 169.22 115.563 190.254 141.51 190.254Z" fill="#1D1D1B" stroke="#1D1D1B" stroke-width="1.56" stroke-miterlimit="10"/>
<path d="M141.51 158.181C150.465 158.181 157.725 150.921 157.725 141.966C157.725 133.01 150.465 125.751 141.51 125.751C132.555 125.751 125.295 133.01 125.295 141.966C125.295 150.921 132.555 158.181 141.51 158.181Z" fill="white" stroke="white" stroke-width="1.56" stroke-miterlimit="10"/>
<path d="M593.473 0.982788H313.527V280.929H593.473V0.982788Z" fill="black"/>
<path d="M360.786 43.7004H544.786V84.435C544.786 151.129 504.368 180.659 452.131 180.381C401.62 180.124 362.353 144.644 361.044 86.8148C360.746 73.6663 360.786 56.8886 360.786 43.7004Z" stroke="white" stroke-width="4" stroke-miterlimit="10"/>
<path d="M453.46 180.976V235.434" stroke="white" stroke-width="4" stroke-miterlimit="10"/>
<path d="M360.786 235.434H544.786" stroke="white" stroke-width="4" stroke-miterlimit="10"/>
<path d="M544.786 59.8039C553.68 59.8039 560.889 52.5942 560.889 43.7005C560.889 34.8068 553.68 27.597 544.786 27.597C535.892 27.597 528.683 34.8068 528.683 43.7005C528.683 52.5942 535.892 59.8039 544.786 59.8039Z" fill="white" stroke="white" stroke-width="4" stroke-miterlimit="10"/>
<path d="M362 95.7159C362 143.069 402.969 181.456 453.5 181.456C504.031 181.456 545 143.069 545 95.7159C545 95.6358 545 95.5357 545 95.4557H362C362 95.4557 362 95.6358 362 95.7159Z" fill="white"/>
<path opacity="0.96" d="M910.452 0.983765H629.528V281.908H910.452V0.983765Z" fill="black"/>
<path d="M715.754 99.6921C724.676 99.6921 731.908 92.4598 731.908 83.5384C731.908 74.6169 724.676 67.3846 715.754 67.3846C706.833 67.3846 699.601 74.6169 699.601 83.5384C699.601 92.4598 706.833 99.6921 715.754 99.6921Z" fill="white" stroke="white" stroke-width="4" stroke-miterlimit="10"/>
<path d="M826.151 99.6723C835.072 99.6723 842.305 92.4401 842.305 83.5186C842.305 74.5971 835.072 67.3649 826.151 67.3649C817.229 67.3649 809.997 74.5971 809.997 83.5186C809.997 92.4401 817.229 99.6723 826.151 99.6723Z" fill="white" stroke="white" stroke-width="4" stroke-miterlimit="10"/>
<path d="M715.754 210.089C724.676 210.089 731.908 202.857 731.908 193.935C731.908 185.014 724.676 177.782 715.754 177.782C706.833 177.782 699.601 185.014 699.601 193.935C699.601 202.857 706.833 210.089 715.754 210.089Z" fill="white" stroke="white" stroke-width="4" stroke-miterlimit="10"/>
<path d="M826.151 210.089C835.072 210.089 842.305 202.857 842.305 193.935C842.305 185.014 835.072 177.782 826.151 177.782C817.229 177.782 809.997 185.014 809.997 193.935C809.997 202.857 817.229 210.089 826.151 210.089Z" fill="white" stroke="white" stroke-width="4" stroke-miterlimit="10"/>
<path d="M660.367 83.3598C661.935 54.5053 679.319 28.2505 716.29 28.2109C751.217 28.1712 768.184 55.5373 771.042 82.9629C776.539 135.949 816.229 137.893 827.362 138.489C838.217 139.084 877.788 130.829 882.213 83.5384" stroke="white" stroke-width="4" stroke-miterlimit="10"/>
<path d="M660.367 193.935C661.935 165.081 679.319 138.826 716.29 138.787C751.217 138.747 768.184 166.113 771.042 193.539C776.539 246.524 816.229 248.469 827.362 249.065C838.217 249.66 877.788 241.404 882.213 194.114" stroke="white" stroke-width="4" stroke-miterlimit="10"/>
<path d="M1226.46 1H944.544V282.911H1226.46V1Z" fill="#1D1D1B"/>
<path d="M1178.8 48.8744H1085.5V233.513H1178.8V48.8744Z" fill="white" stroke="white" stroke-width="4" stroke-miterlimit="10"/>
<path d="M996.831 93.2189C997.252 67.3262 1018.99 47.1696 1043.16 48.2125C1065.26 49.1752 1084.18 67.6671 1085.52 91.2333C1085.74 138.887 1085.96 186.521 1086.18 234.175H996.169C996.39 187.183 996.61 140.211 996.831 93.2189Z" stroke="white" stroke-width="4" stroke-miterlimit="10"/>
<path d="M1041.16 65.0799C1050.11 65.0799 1057.36 57.8245 1057.36 48.8744C1057.36 39.9244 1050.11 32.6689 1041.16 32.6689C1032.21 32.6689 1024.95 39.9244 1024.95 48.8744C1024.95 57.8245 1032.21 65.0799 1041.16 65.0799Z" fill="white" stroke="white" stroke-width="4" stroke-miterlimit="10"/>
<path d="M1132.15 65.0799C1141.1 65.0799 1148.36 57.8245 1148.36 48.8744C1148.36 39.9244 1141.1 32.6689 1132.15 32.6689C1123.2 32.6689 1115.95 39.9244 1115.95 48.8744C1115.95 57.8245 1123.2 65.0799 1132.15 65.0799Z" fill="#1D1D1B" stroke="white" stroke-width="4" stroke-miterlimit="10"/>
<path d="M1543.45 1.00549H1260.55V283.906H1543.45V1.00549Z" fill="#1D1D1B"/>
<path d="M1494.34 49.0479H1308.37V235.018H1494.34V49.0479Z" stroke="white" stroke-width="4" stroke-miterlimit="10"/>
<path d="M1401.36 49.0479H1308.37V234.334H1401.36V49.0479Z" fill="white" stroke="white" stroke-width="4" stroke-miterlimit="10"/>
<path d="M1494.34 141.691L1396.69 142.033" stroke="white" stroke-width="4" stroke-miterlimit="10"/>
<path d="M1494.34 49.0479L1401.36 141.691" stroke="white" stroke-width="4" stroke-miterlimit="10"/>
<path d="M1401.36 49.0479L1494.34 141.691" stroke="white" stroke-width="4" stroke-miterlimit="10"/>
<path d="M1401.36 234.334L1494.34 141.691" stroke="white" stroke-width="4" stroke-miterlimit="10"/>
<path d="M1494.34 235.018L1402 142.456" stroke="white" stroke-width="4" stroke-miterlimit="10"/>
<path d="M1375.78 158.718C1384.76 158.718 1392.04 151.437 1392.04 142.456C1392.04 133.474 1384.76 126.193 1375.78 126.193C1366.79 126.193 1359.51 133.474 1359.51 142.456C1359.51 151.437 1366.79 158.718 1375.78 158.718Z" fill="#1D1D1B" stroke="#1D1D1B" stroke-width="4" stroke-miterlimit="10"/>
<path d="M1856.44 1H1573.54V283.891H1856.44V1Z" fill="#1D1D1B"/>
<path d="M1668.85 95.364H1620.03V141.674H1809.97V95.364H1715V49.0344H1668.85V70.2939" stroke="white" stroke-width="4" stroke-miterlimit="10"/>
<path d="M1758.72 141.573H1668.85V234.333H1758.72V141.573Z" fill="white" stroke="white" stroke-width="4" stroke-miterlimit="10"/>
<path d="M1712.55 111.63C1721.54 111.63 1728.82 104.347 1728.82 95.364C1728.82 86.3808 1721.54 79.0985 1712.55 79.0985C1703.57 79.0985 1696.29 86.3808 1696.29 95.364C1696.29 104.347 1703.57 111.63 1712.55 111.63Z" fill="white" stroke="white" stroke-width="4" stroke-miterlimit="10"/>
</svg>
