<?xml version="1.0" encoding="UTF-8"?>
<svg id="Layer_1" data-name="Layer 1" xmlns="http://www.w3.org/2000/svg" viewBox="0 0 480 480">
  <defs>
    <style>
      .cls-1, .cls-2 {
        stroke-width: 0px;
      }

      .cls-2 {
        fill: #fff;
      }
    </style>
  </defs>
  <rect class="cls-1" x="0" y="-.86" width="960" height="480.86"/>
  <g>
    <polygon class="cls-2" points="127.45 334.07 181.53 371.76 188.96 432.03 82.51 432.03 94.58 334.07 127.45 334.07"/>
    <polygon class="cls-2" points="267.97 432.03 267.67 338.8 277.71 338.8 273.34 345.7 367.17 345.7 367.17 460.16 250.57 480.86 251.19 432.03 200.8 432.03 206.11 388.9 267.97 432.03"/>
    <polygon class="cls-2" points="0 432.03 0 334.07 58.37 334.07 70.46 432.03 0 432.03"/>
    <polygon class="cls-2" points="389.77 151.82 389.77 158.74 388.47 151.82 389.77 151.82"/>
    <polygon class="cls-2" points="154.2 150.37 176.87 334.07 127.45 334.07 97.19 312.97 115.47 164.63 174.54 123.41 174.54 150.37 154.2 150.37"/>
    <polygon class="cls-2" points="339.91 218.18 339.91 240.6 305.58 294.8 251.19 285.14 251.19 334.07 212.87 334.07 235.56 149.99 215.26 150.37 215.26 94.99 267.67 58.41 267.67 151.82 331.99 151.82 319.57 218.18 339.91 218.18"/>
    <polygon class="cls-2" points="0 245.22 43.65 214.76 51.87 281.38 0 245.22"/>
    <polygon class="cls-2" points="94.58 334.07 58.37 334.07 51.87 281.38 97.19 312.97 94.58 334.07"/>
    <polygon class="cls-2" points="35.81 151.23 56.15 151.23 56.15 .86 96.87 .86 96.87 151.23 117.17 150.85 115.47 164.63 43.65 214.76 35.81 151.23"/>
    <polygon class="cls-2" points="76.49 480.86 70.46 432.03 82.51 432.03 76.49 480.86"/>
    <polygon class="cls-2" points="174.54 0 215.26 0 215.26 94.99 174.54 123.41 174.54 0"/>
    <polygon class="cls-2" points="194.88 480 188.96 432.03 200.8 432.03 194.88 480"/>
    <polygon class="cls-2" points="181.53 371.76 176.87 334.07 212.87 334.07 206.11 388.9 181.53 371.76"/>
    <polygon class="cls-2" points="389.77 158.74 390.22 161.16 389.77 161.88 389.77 158.74"/>
    <polygon class="cls-2" points="360.25 .86 388.47 151.82 331.99 151.82 360.25 .86"/>
    <polygon class="cls-2" points="555.01 480.86 367.17 480.86 367.17 460.16 555.01 426.82 555.01 480.86"/>
    <polygon class="cls-2" points="389.77 218.29 400.93 218.42 390.22 161.16 461 49.4 583.83 243.56 389.77 262.99 389.77 218.29"/>
    <polygon class="cls-2" points="592.74 345.84 389.77 309.76 389.77 267.28 612.95 289.6 648.66 346.04 592.74 345.84"/>
    <polygon class="cls-2" points="339.91 317.31 380.63 317.31 380.63 308.14 389.77 309.76 389.77 338.8 277.71 338.8 305.58 294.8 339.91 300.9 339.91 317.31"/>
    <polygon class="cls-2" points="380.63 263.9 368.32 265.13 380.63 266.36 380.63 308.14 339.91 300.9 339.91 240.6 389.77 161.88 389.77 218.29 380.63 218.18 380.63 263.9"/>
    <polygon class="cls-2" points="380.63 263.9 389.77 262.99 389.77 267.28 380.63 266.36 380.63 263.9"/>
  </g>
</svg>