<?xml version="1.0" encoding="UTF-8"?>
<svg id="Layer_1" data-name="Layer 1" xmlns="http://www.w3.org/2000/svg" viewBox="0 0 240 240">
  <defs>
    <style>
      .cls-1, .cls-2, .cls-3 {
        stroke-width: 0px;
      }

      .cls-4 {
        stroke: #fff;
      }

      .cls-4, .cls-5 {
        fill: none;
        stroke-miterlimit: 10;
        stroke-width: 8px;
      }

      .cls-2 {
        fill: #fff;
      }

      .cls-5 {
        stroke: #0000f4;
      }

      .cls-3 {
        fill: #0000f4;
      }
    </style>
  </defs>
  <rect class="cls-1" width="240" height="240"/>
  <g>
    <path class="cls-5" d="M85.81,175.24c.53,4.84,1.89,11.78,5.56,19.33,4.07,8.36,9.08,13.59,10.58,15.1,4.13,4.15,7.97,6.64,10.44,8.22,6.14,3.93,11.3,5.84,12.39,6.23,6.25,2.27,11.42,2.94,13.58,3.17,2.07.22,8.49.78,16.66-.72,5.98-1.1,10.37-2.84,12.13-3.58,1.7-.72,6.52-2.84,12-6.85,4.68-3.43,7.71-6.67,8.64-7.69.83-.91,3.9-4.33,6.99-9.5.66-1.1,2.8-4.76,4.82-9.96.14-.36.29-.75.45-1.17"/>
    <polygon class="cls-3" points="207.68 195.25 203.12 159.63 189.26 192.76 207.68 195.25"/>
  </g>
  <g>
    <path class="cls-4" d="M108.13,176.01c.53,4.84,1.89,11.78,5.56,19.33,4.07,8.36,9.08,13.59,10.58,15.1,4.13,4.15,7.97,6.64,10.44,8.22,6.14,3.93,11.3,5.84,12.39,6.24,6.25,2.27,11.42,2.94,13.58,3.17,2.07.22,8.49.78,16.66-.72,5.98-1.1,10.37-2.84,12.13-3.58,1.7-.72,6.52-2.84,12-6.85,4.68-3.43,7.71-6.67,8.64-7.69.83-.91,3.9-4.33,6.99-9.5.66-1.1,2.8-4.76,4.82-9.96.14-.36.29-.75.45-1.17"/>
    <polygon class="cls-2" points="230.01 196.02 225.44 160.39 211.58 193.52 230.01 196.02"/>
  </g>
  <g>
    <line class="cls-5" x1="207.9" y1="129.66" x2="129.18" y2="30.22"/>
    <polygon class="cls-3" points="140.41 29.42 111.58 7.99 125.83 40.96 140.41 29.42"/>
  </g>
  <g>
    <line class="cls-4" x1="231.76" y1="129.53" x2="153.05" y2="30.09"/>
    <polygon class="cls-2" points="164.27 29.29 135.45 7.86 149.69 40.83 164.27 29.29"/>
  </g>
  <g>
    <line class="cls-4" x1="21.96" y1="224.01" x2="21.96" y2="138.88"/>
    <polygon class="cls-2" points="31.26 145.22 21.96 110.53 12.67 145.22 31.26 145.22"/>
  </g>
  <g>
    <line class="cls-5" x1="43.91" y1="234.77" x2="43.91" y2="149.63"/>
    <polygon class="cls-3" points="53.21 155.97 43.91 121.28 34.62 155.97 53.21 155.97"/>
  </g>
  <g>
    <path class="cls-5" d="M235.38,58.83c-4.56-2.71-11.5-6.08-20.48-7.83-9.95-1.94-17.79-1-20.08-.68-6.33.88-11.01,2.59-14,3.7-7.45,2.77-12.5,6.02-13.55,6.7-6.08,3.96-10.05,8.01-11.67,9.75-1.55,1.66-6.25,6.89-10.3,14.99-2.96,5.93-4.32,10.9-4.83,12.92-.49,1.95-1.8,7.53-1.9,14.94-.08,6.32.76,11.08,1.03,12.56.25,1.31,1.21,6.23,3.69,12.32.52,1.29,2.31,5.56,5.51,10.73.59.94,1.29,2.08,2.16,3.36"/>
    <polygon class="cls-3" points="140.48 154.17 172.08 171.24 153.25 140.66 140.48 154.17"/>
  </g>
  <g>
    <path class="cls-4" d="M220.08,77.78c-4.56-2.71-11.5-6.08-20.48-7.83-9.95-1.94-17.79-1-20.08-.68-6.33.88-11.01,2.59-14,3.7-7.45,2.77-12.5,6.02-13.55,6.7-6.08,3.96-10.05,8.01-11.67,9.75-1.55,1.66-6.25,6.89-10.3,14.99-2.96,5.93-4.32,10.9-4.83,12.92-.49,1.95-1.8,7.53-1.9,14.94-.08,6.32.76,11.08,1.03,12.56.25,1.31,1.21,6.23,3.69,12.32.52,1.29,2.31,5.56,5.51,10.73.59.94,1.29,2.08,2.16,3.36"/>
    <polygon class="cls-2" points="125.18 173.11 156.78 190.18 137.95 159.6 125.18 173.11"/>
  </g>
  <g>
    <line class="cls-5" x1="32.16" y1="11.22" x2="98.15" y2="127.43"/>
    <polygon class="cls-3" points="86.93 126.51 112.15 152.09 103.1 117.33 86.93 126.51"/>
  </g>
  <g>
    <line class="cls-4" x1="8.23" y1="7.15" x2="74.22" y2="123.37"/>
    <polygon class="cls-2" points="63.01 122.44 88.22 148.02 79.17 113.26 63.01 122.44"/>
  </g>
  <g>
    <line class="cls-4" x1="8.23" y1="84.65" x2="93.63" y2="38.82"/>
    <polygon class="cls-2" points="92.44 50.01 118.61 25.42 83.65 33.63 92.44 50.01"/>
  </g>
  <g>
    <line class="cls-5" x1="4.57" y1="111.53" x2="93.24" y2="63.94"/>
    <polygon class="cls-3" points="92.05 75.13 118.22 50.54 83.26 58.75 92.05 75.13"/>
  </g>
</svg>