<?xml version="1.0" encoding="UTF-8"?>
<svg id="Layer_1" data-name="Layer 1" xmlns="http://www.w3.org/2000/svg" viewBox="0 0 240 240">
  <defs>
    <style>
      .cls-1 {
        fill: none;
        stroke: #fff;
        stroke-miterlimit: 10;
        stroke-width: 8px;
      }

      .cls-2 {
        fill: #fff;
      }

      .cls-2, .cls-3 {
        stroke-width: 0px;
      }

      .cls-3 {
        fill: #0000f4;
      }
    </style>
  </defs>
  <rect class="cls-3" x="0" width="240" height="240"/>
  <g>
    <g>
      <path class="cls-1" d="M28.09,140.78c.83,6.32,2.81,15.38,7.83,25.17,5.56,10.84,12.28,17.54,14.29,19.48,5.53,5.32,10.63,8.48,13.9,10.47,8.16,4.98,14.97,7.33,16.4,7.82,8.25,2.8,15.04,3.53,17.88,3.77,2.72.23,11.15.78,21.81-1.41,7.8-1.61,13.51-4.02,15.79-5.04,2.21-.99,8.45-3.9,15.52-9.31,6.03-4.62,9.91-8.95,11.1-10.31,1.06-1.21,4.98-5.78,8.89-12.65.83-1.45,3.53-6.31,6.03-13.18.88-2.43,2.1-5.82,3.11-10.21"/>
      <polygon class="cls-2" points="189.04 152.11 181.32 117.03 170.47 151.27 189.04 152.11"/>
    </g>
    <g>
      <path class="cls-1" d="M57.36,141.15c.83,6.32,2.81,15.38,7.83,25.17,5.56,10.84,12.28,17.54,14.29,19.48,5.53,5.32,10.63,8.48,13.9,10.47,8.16,4.98,14.97,7.33,16.4,7.82,8.25,2.8,15.04,3.53,17.88,3.77,2.72.23,11.15.78,21.81-1.41,7.8-1.61,13.51-4.02,15.79-5.04,2.21-.99,8.45-3.9,15.52-9.31,6.03-4.62,9.91-8.95,11.1-10.31,1.06-1.21,4.98-5.78,8.89-12.65.83-1.45,3.53-6.31,6.03-13.18.88-2.43,2.1-5.82,3.11-10.21"/>
      <polygon class="cls-2" points="218.31 152.48 210.59 117.4 199.73 151.64 218.31 152.48"/>
    </g>
  </g>
  <g>
    <g>
      <path class="cls-1" d="M211.91,109.43c-.83-6.32-2.81-15.38-7.83-25.17-5.56-10.84-12.28-17.54-14.29-19.48-5.53-5.32-10.63-8.48-13.9-10.47-8.16-4.98-14.97-7.33-16.4-7.82-8.25-2.8-15.04-3.53-17.88-3.77-2.72-.23-11.15-.78-21.81,1.41-7.8,1.61-13.51,4.02-15.79,5.04-2.21.99-8.45,3.9-15.52,9.31-6.03,4.62-9.91,8.95-11.1,10.31-1.06,1.21-4.98,5.78-8.89,12.65-.83,1.45-3.53,6.31-6.03,13.18-.88,2.43-2.1,5.82-3.11,10.21"/>
      <polygon class="cls-2" points="50.96 98.1 58.68 133.18 69.53 98.94 50.96 98.1"/>
    </g>
    <g>
      <path class="cls-1" d="M182.64,109.06c-.83-6.32-2.81-15.38-7.83-25.17-5.56-10.84-12.28-17.54-14.29-19.48-5.53-5.32-10.63-8.48-13.9-10.47-8.16-4.98-14.97-7.33-16.4-7.82-8.25-2.8-15.04-3.53-17.88-3.77-2.72-.23-11.15-.78-21.81,1.41-7.8,1.61-13.51,4.02-15.79,5.04-2.21.99-8.45,3.9-15.52,9.31-6.03,4.62-9.91,8.95-11.1,10.31-1.06,1.21-4.98,5.78-8.89,12.65-.83,1.45-3.53,6.31-6.03,13.18-.88,2.43-2.1,5.82-3.11,10.21"/>
      <polygon class="cls-2" points="21.69 97.73 29.41 132.81 40.27 98.57 21.69 97.73"/>
    </g>
  </g>
</svg>