<?xml version="1.0" encoding="UTF-8"?>
<svg id="Layer_1" data-name="Layer 1" xmlns="http://www.w3.org/2000/svg" viewBox="0 0 240 240">
  <defs>
    <style>
      .cls-1, .cls-2 {
        stroke-width: 0px;
      }

      .cls-3 {
        stroke: #000;
      }

      .cls-3, .cls-4 {
        fill: none;
        stroke-miterlimit: 10;
        stroke-width: 20.5px;
      }

      .cls-4 {
        stroke: #0000f4;
      }

      .cls-2 {
        fill: #0000f4;
      }
    </style>
  </defs>
  <g>
    <polygon class="cls-1" points="100.31 266.29 80.06 190.73 59.81 266.29 100.31 266.29"/>
    <polygon class="cls-1" points="140.25 266.29 120 190.73 99.75 266.29 140.25 266.29"/>
    <polygon class="cls-1" points="180.19 266.29 159.94 190.73 139.69 266.29 180.19 266.29"/>
    <polygon class="cls-1" points="220.14 266.29 199.89 190.73 179.64 266.29 220.14 266.29"/>
    <polygon class="cls-1" points="20.42 266.29 .17 190.73 -20.08 266.29 20.42 266.29"/>
    <polygon class="cls-1" points="60.36 266.29 40.11 190.73 19.86 266.29 60.36 266.29"/>
    <polygon class="cls-1" points="260.08 266.29 239.83 190.73 219.58 266.29 260.08 266.29"/>
    <g>
      <line class="cls-4" x1="60.13" y1="157.16" x2="60.13" y2="205.02"/>
      <polygon class="cls-2" points="39.88 191.21 60.13 266.77 80.38 191.21 39.88 191.21"/>
    </g>
    <g>
      <line class="cls-4" x1="100.04" y1="157.16" x2="100.04" y2="205.02"/>
      <polygon class="cls-2" points="79.79 191.21 100.04 266.77 120.29 191.21 79.79 191.21"/>
    </g>
    <g>
      <line class="cls-4" x1="139.96" y1="157.16" x2="139.96" y2="205.02"/>
      <polygon class="cls-2" points="119.71 191.21 139.96 266.77 160.21 191.21 119.71 191.21"/>
    </g>
    <g>
      <line class="cls-4" x1="179.87" y1="157.16" x2="179.87" y2="205.02"/>
      <polygon class="cls-2" points="159.62 191.21 179.87 266.77 200.12 191.21 159.62 191.21"/>
    </g>
    <g>
      <line class="cls-4" x1="20.22" y1="157.16" x2="20.22" y2="205.02"/>
      <polygon class="cls-2" points="-.03 191.21 20.22 266.77 40.47 191.21 -.03 191.21"/>
    </g>
    <g>
      <line class="cls-4" x1="219.78" y1="157.16" x2="219.78" y2="205.02"/>
      <polygon class="cls-2" points="199.53 191.21 219.78 266.77 240.03 191.21 199.53 191.21"/>
    </g>
    <g>
      <line class="cls-3" x1="80.06" y1="191.93" x2="80.06" y2="144.06"/>
      <polygon class="cls-1" points="100.31 157.87 80.06 82.31 59.81 157.87 100.31 157.87"/>
    </g>
    <g>
      <line class="cls-3" x1="120" y1="191.93" x2="120" y2="144.06"/>
      <polygon class="cls-1" points="140.25 157.87 120 82.31 99.75 157.87 140.25 157.87"/>
    </g>
    <g>
      <line class="cls-3" x1="159.94" y1="191.93" x2="159.94" y2="144.06"/>
      <polygon class="cls-1" points="180.19 157.87 159.94 82.31 139.69 157.87 180.19 157.87"/>
    </g>
    <g>
      <line class="cls-3" x1="199.89" y1="191.93" x2="199.89" y2="144.06"/>
      <polygon class="cls-1" points="220.14 157.87 199.89 82.31 179.64 157.87 220.14 157.87"/>
    </g>
    <g>
      <line class="cls-3" x1=".17" y1="191.93" x2=".17" y2="144.06"/>
      <polygon class="cls-1" points="20.42 157.87 .17 82.31 -20.08 157.87 20.42 157.87"/>
    </g>
    <g>
      <line class="cls-3" x1="40.11" y1="191.93" x2="40.11" y2="144.06"/>
      <polygon class="cls-1" points="60.36 157.87 40.11 82.31 19.86 157.87 60.36 157.87"/>
    </g>
    <g>
      <line class="cls-3" x1="239.83" y1="191.93" x2="239.83" y2="144.06"/>
      <polygon class="cls-1" points="260.08 157.87 239.83 82.31 219.58 157.87 260.08 157.87"/>
    </g>
  </g>
  <g>
    <g>
      <line class="cls-4" x1="60.23" y1="48.56" x2="60.23" y2="96.43"/>
      <polygon class="cls-2" points="39.98 82.62 60.23 158.18 80.48 82.62 39.98 82.62"/>
    </g>
    <g>
      <line class="cls-4" x1="100.14" y1="48.56" x2="100.14" y2="96.43"/>
      <polygon class="cls-2" points="79.89 82.62 100.14 158.18 120.39 82.62 79.89 82.62"/>
    </g>
    <g>
      <line class="cls-4" x1="140.05" y1="48.56" x2="140.05" y2="96.43"/>
      <polygon class="cls-2" points="119.8 82.62 140.05 158.18 160.3 82.62 119.8 82.62"/>
    </g>
    <g>
      <line class="cls-4" x1="179.97" y1="48.56" x2="179.97" y2="96.43"/>
      <polygon class="cls-2" points="159.72 82.62 179.97 158.18 200.22 82.62 159.72 82.62"/>
    </g>
    <g>
      <line class="cls-4" x1="20.32" y1="48.56" x2="20.32" y2="96.43"/>
      <polygon class="cls-2" points=".07 82.62 20.32 158.18 40.57 82.62 .07 82.62"/>
    </g>
    <g>
      <line class="cls-4" x1="219.88" y1="48.56" x2="219.88" y2="96.43"/>
      <polygon class="cls-2" points="199.63 82.62 219.88 158.18 240.13 82.62 199.63 82.62"/>
    </g>
    <g>
      <line class="cls-3" x1="80.06" y1="83.38" x2="80.06" y2="35.52"/>
      <polygon class="cls-1" points="100.31 49.33 80.06 -26.23 59.81 49.33 100.31 49.33"/>
    </g>
    <g>
      <line class="cls-3" x1="120" y1="83.38" x2="120" y2="35.52"/>
      <polygon class="cls-1" points="140.25 49.33 120 -26.23 99.75 49.33 140.25 49.33"/>
    </g>
    <g>
      <line class="cls-3" x1="159.94" y1="83.38" x2="159.94" y2="35.52"/>
      <polygon class="cls-1" points="180.19 49.33 159.94 -26.23 139.69 49.33 180.19 49.33"/>
    </g>
    <g>
      <line class="cls-3" x1="199.89" y1="83.38" x2="199.89" y2="35.52"/>
      <polygon class="cls-1" points="220.14 49.33 199.89 -26.23 179.64 49.33 220.14 49.33"/>
    </g>
    <g>
      <line class="cls-3" x1=".17" y1="83.38" x2=".17" y2="35.52"/>
      <polygon class="cls-1" points="20.42 49.33 .17 -26.23 -20.08 49.33 20.42 49.33"/>
    </g>
    <g>
      <line class="cls-3" x1="40.11" y1="83.38" x2="40.11" y2="35.52"/>
      <polygon class="cls-1" points="60.36 49.33 40.11 -26.23 19.86 49.33 60.36 49.33"/>
    </g>
    <g>
      <line class="cls-3" x1="239.83" y1="83.38" x2="239.83" y2="35.52"/>
      <polygon class="cls-1" points="260.08 49.33 239.83 -26.23 219.58 49.33 260.08 49.33"/>
    </g>
    <polygon class="cls-2" points="39.88 -26.29 60.13 49.27 80.38 -26.29 39.88 -26.29"/>
    <polygon class="cls-2" points="79.79 -26.29 100.04 49.27 120.29 -26.29 79.79 -26.29"/>
    <polygon class="cls-2" points="119.71 -26.29 139.96 49.27 160.21 -26.29 119.71 -26.29"/>
    <polygon class="cls-2" points="159.62 -26.29 179.87 49.27 200.12 -26.29 159.62 -26.29"/>
    <polygon class="cls-2" points="-.03 -26.29 20.22 49.27 40.47 -26.29 -.03 -26.29"/>
    <polygon class="cls-2" points="199.53 -26.29 219.78 49.27 240.03 -26.29 199.53 -26.29"/>
  </g>
</svg>