<?xml version="1.0" encoding="UTF-8"?>
<svg id="Layer_1" data-name="Layer 1" xmlns="http://www.w3.org/2000/svg" viewBox="0 0 430.22 206.27">
  <defs>
    <style>
      .cls-1 {
        fill: none;
        stroke: #fff;
        stroke-miterlimit: 10;
        stroke-width: 8px;
      }

      .cls-2 {
        fill: #fff;
        stroke-width: 0px;
      }
    </style>
  </defs>
  <g>
    <path class="cls-1" d="M3.98,45.96c1.56,14.25,5.56,34.68,16.37,56.91,11.97,24.62,26.73,39.99,31.15,44.43,12.16,12.22,23.47,19.55,30.73,24.2,18.08,11.57,33.27,17.19,36.46,18.35,18.4,6.68,33.61,8.66,39.97,9.34,6.09.64,25.01,2.3,49.05-2.13,17.6-3.24,30.53-8.37,35.72-10.55,5.01-2.11,19.18-8.35,35.31-20.17,13.77-10.08,22.68-19.63,25.43-22.63,2.43-2.66,11.47-12.74,20.59-27.98,1.93-3.22,8.24-14,14.19-29.32,2.94-7.59,7.46-19.41,10.21-35.71.06-.37.12-.73.18-1.1"/>
    <polygon class="cls-2" points="364.51 60.98 349.29 0 331.98 60.42 364.51 60.98"/>
  </g>
  <g>
    <path class="cls-1" d="M69.69,48.2c1.56,14.25,5.56,34.68,16.37,56.91,11.97,24.62,26.73,39.99,31.15,44.43,12.16,12.22,23.47,19.55,30.73,24.2,18.08,11.57,33.27,17.19,36.46,18.35,18.4,6.68,33.61,8.66,39.97,9.34,6.09.64,25.01,2.3,49.05-2.13,17.6-3.24,30.53-8.37,35.72-10.55,5.01-2.11,19.18-8.35,35.31-20.17,13.77-10.08,22.68-19.63,25.43-22.63,2.43-2.66,11.47-12.74,20.59-27.98,1.93-3.22,8.24-14,14.19-29.32,2.94-7.59,7.46-19.41,10.21-35.71.06-.37.12-.73.18-1.1"/>
    <polygon class="cls-2" points="430.22 63.22 415.01 2.24 397.69 62.66 430.22 63.22"/>
  </g>
</svg>