<?xml version="1.0" encoding="UTF-8"?>
<svg id="Layer_1" data-name="Layer 1" xmlns="http://www.w3.org/2000/svg" viewBox="0 0 480 480">
  <defs>
    <style>
      .cls-1 {
        stroke-width: 0px;
      }

      .cls-2 {
        fill: none;
        stroke: #000;
        stroke-miterlimit: 10;
        stroke-width: 6px;
      }
    </style>
  </defs>
  <g>
    <g>
      <path class="cls-2" d="M33.6,268.56c1.15,14.61,4.6,35.61,14.94,58.66,11.46,25.53,26.06,41.7,30.43,46.38,12.04,12.87,23.37,20.71,30.64,25.69,18.11,12.39,33.46,18.61,36.68,19.9,18.59,7.41,34.07,9.91,40.55,10.79,6.2.85,25.48,3.13,50.19-.63,18.09-2.76,31.46-7.59,36.83-9.66,5.19-2,19.86-7.93,36.71-19.5,14.38-9.87,23.79-19.34,26.69-22.33,2.57-2.65,12.11-12.65,21.91-27.94,2.07-3.23,8.86-14.05,15.41-29.51,3.24-7.66,8.23-19.59,11.56-36.17.65-3.21,1.17-6.31,1.6-9.28"/>
      <polygon class="cls-1" points="400.86 284.72 387.87 232.44 372.98 284.21 400.86 284.72"/>
    </g>
    <g>
      <path class="cls-2" d="M90.6,268.56c1.15,14.61,4.6,35.61,14.94,58.66,11.46,25.53,26.06,41.7,30.43,46.38,12.04,12.87,23.37,20.71,30.64,25.69,18.11,12.39,33.46,18.61,36.68,19.9,18.59,7.41,34.07,9.91,40.55,10.79,6.2.85,25.48,3.13,50.19-.63,18.09-2.76,31.46-7.59,36.83-9.66,5.19-2,19.86-7.93,36.71-19.5,14.38-9.87,23.79-19.34,26.69-22.33,2.57-2.65,12.11-12.65,21.91-27.94,2.07-3.23,8.86-14.05,15.41-29.51,3.24-7.66,8.23-19.59,11.56-36.17.65-3.21,1.17-6.31,1.6-9.28"/>
      <polygon class="cls-1" points="457.86 284.72 444.87 232.44 429.97 284.21 457.86 284.72"/>
    </g>
  </g>
  <g>
    <g>
      <path class="cls-2" d="M446.4,211.44c-1.15-14.61-4.6-35.61-14.94-58.66-11.46-25.53-26.06-41.7-30.43-46.38-12.04-12.87-23.37-20.71-30.64-25.69-18.11-12.39-33.46-18.61-36.68-19.9-18.59-7.41-34.07-9.91-40.55-10.79-6.2-.85-25.48-3.13-50.19.63-18.09,2.76-31.46,7.59-36.83,9.66-5.19,2-19.86,7.93-36.71,19.5-14.38,9.87-23.79,19.34-26.69,22.33-2.57,2.65-12.11,12.65-21.91,27.94-2.07,3.23-8.86,14.05-15.41,29.51-3.24,7.66-8.23,19.59-11.56,36.17-.65,3.21-1.17,6.31-1.6,9.28"/>
      <polygon class="cls-1" points="79.14 195.28 92.13 247.56 107.02 195.79 79.14 195.28"/>
    </g>
    <g>
      <path class="cls-2" d="M389.4,211.44c-1.15-14.61-4.6-35.61-14.94-58.66-11.46-25.53-26.06-41.7-30.43-46.38-12.04-12.87-23.37-20.71-30.64-25.69-18.11-12.39-33.46-18.61-36.68-19.9-18.59-7.41-34.07-9.91-40.55-10.79-6.2-.85-25.48-3.13-50.19.63-18.09,2.76-31.46,7.59-36.83,9.66-5.19,2-19.86,7.93-36.71,19.5-14.38,9.87-23.79,19.34-26.69,22.33-2.57,2.65-12.11,12.65-21.91,27.94-2.07,3.23-8.86,14.05-15.41,29.51-3.24,7.66-8.23,19.59-11.56,36.17-.65,3.21-1.17,6.31-1.6,9.28"/>
      <polygon class="cls-1" points="22.14 195.28 35.13 247.56 50.03 195.79 22.14 195.28"/>
    </g>
  </g>
</svg>