<svg width="521" height="471" viewBox="0 0 521 471" fill="none" xmlns="http://www.w3.org/2000/svg">
<path d="M379.116 202.381C378.515 199.079 378.72 192.406 379.128 179.051C379.482 167.502 379.85 165.108 381.585 162.439C384.757 157.562 388.512 157.904 396.471 152.993C402.974 148.983 411.092 143.973 413.658 135.866C417.786 122.802 405.014 109.478 404.176 108.634C402.191 106.623 393.835 98.1299 381.291 98.649C380.449 98.6862 366.003 99.4567 361.621 108.376C359.355 112.986 361.598 116.066 358.435 124.348C357.091 127.873 356.07 130.548 353.761 132.511C349.615 136.047 344.188 134.854 331.481 132.785C311.351 129.504 301.276 127.863 297.214 127.582C287.303 126.899 283.809 127.634 281.609 124.72C278.666 120.817 282.196 115.864 283.349 101.63C283.976 93.8409 284.3 89.9464 283.155 86.5447C279.395 75.3529 264.641 68.1208 251.549 68.1476C247.283 68.1546 234.036 68.1882 226.442 78.8804C220.718 86.936 219.773 98.8537 224.578 105.748C227.102 109.362 230.168 110.112 232.339 115.244C232.779 116.283 235.075 121.709 233.336 126.506C232.132 129.834 229.075 132.648 214.75 137.193C199.442 142.052 197.267 140.639 182.607 144.904C170.599 148.391 168.29 150.433 164.307 148.72C157.753 145.896 159.335 138.361 151.803 128.525C149.909 126.054 141.838 115.504 129.683 114.034C114.157 112.161 102.365 126.365 100.351 128.786C93.0892 137.536 85.343 154.124 91.7681 163.939C97.036 171.98 111.494 174.999 121.006 176.985C122.219 177.24 125.321 177.843 129.366 179.239C135.739 181.431 139.795 182.831 142.436 185.677C148.498 192.231 145.029 204.241 142.065 214.52C139.847 222.19 138.459 226.735 134.014 229.399C128.481 232.706 121.756 230.984 117.922 229.998C109.648 227.879 108.449 224.327 102.719 222.314C93.042 218.907 78.5087 222.685 70.0966 233.482C62.4779 243.257 61.1015 257.176 67.305 267.949C72.2905 276.603 82.0783 283.099 91.5118 283.008C99.6039 282.923 102.586 278.041 115.201 277.507C120.08 277.298 123.653 277.147 127.628 278.844C136.267 282.513 139.743 291.838 142.987 300.93C148.006 315.013 151.561 324.981 147.356 334.643C143.062 344.507 135.511 342.953 119.913 358.204C110.361 367.543 103.804 373.962 104.176 382.457C104.709 394.727 119.342 402.74 124.033 405.312C128.87 407.96 140.737 414.463 152.466 410.509C163.901 406.66 162.474 397.161 176.163 387.512C187.905 379.232 200.446 378.122 209.19 377.351C222.735 376.153 232.26 378.687 247.241 382.674C258.037 385.543 261.834 387.762 264.86 390.567C270.905 396.161 270.44 400.916 274.865 409.192C276.629 412.487 285.13 427.481 301.323 433.375C304.125 434.393 319.804 440.104 334.144 431.46C343.154 426.032 352.266 414.546 350.083 404.795C348.912 399.568 345.655 400.039 336.332 386.733C328.587 375.678 328.205 371.595 329.46 368.954C330.29 367.202 332.048 365.668 334.048 365.251C338.598 364.313 343.035 369.49 347.642 374.752C359.692 388.499 365.715 395.379 368.506 397.202C377.501 403.068 389.882 403.627 399.56 400.186C415.93 394.37 427.769 375.992 424.637 359.611C423.248 352.366 418.408 342.741 410.045 338.848C406.652 337.27 406.101 338.222 397.179 335.828C386.863 333.051 381.648 331.586 379.206 327.615C376.203 322.743 377.814 316.517 378.812 312.687C380.21 307.297 382.742 303.673 384.203 301.593C396.143 284.576 402.381 275.863 402.919 275.454C410.985 269.976 413.52 274.257 436.108 268.021C451.907 263.662 455.27 260.303 456.507 258.935C463.038 251.739 464.497 240.607 461.79 231.864C456.511 214.835 434.963 205.519 422.784 210.128C416.432 212.532 414.486 218.013 402.589 222.633C397.474 224.617 394.438 225.741 391.041 224.679C382.664 222.048 380.227 208.596 379.1 202.389L379.116 202.381Z" fill="black"/>
</svg>
