<svg width="686" height="591" viewBox="0 0 686 591" fill="none" xmlns="http://www.w3.org/2000/svg">
<path d="M231.001 1C226.604 2.25997 286.981 187.489 272.003 219.991C262.051 241.565 241.596 253.38 218.003 266.996C197.161 279.03 178.531 284.725 168.259 287.811C150.773 293.057 12.4814 300.642 1 301.992C10.0514 299.652 155.299 290.215 181 298.997C190 302.069 211.304 309.681 226 330.997C247.06 361.545 238.317 396.696 236.003 405.991C232.416 420.43 137.363 523.298 133.004 529.983C141.554 525.085 242.779 426.55 258.001 419.993C276.593 411.983 285.889 407.971 296.007 406.994C321.837 404.487 342.82 422.873 358.004 435.999C388.411 462.292 432.421 592.493 439.004 613C434.016 596.299 398.08 470.636 402.001 437.002C404.097 419.015 406.797 395.925 421.004 376.009C452.787 331.422 676.501 370.494 685 371.008C678.031 369.388 526.999 340.01 499.999 315.003C475.737 292.542 470.44 270.609 470.003 265.003C465.001 202.004 657.126 101.528 660.996 98.0051C653.359 101.721 481.999 198.07 467.997 203.997C434.62 218.127 417.919 225.198 399.996 228.001C390.289 229.518 344.26 236.705 312.001 211.004C283.009 187.9 235.36 -0.234247 231.001 1.01287V1Z" fill="black" stroke="black" stroke-miterlimit="10"/>
</svg>
