<svg width="508" height="525" viewBox="0 0 508 525" fill="none" xmlns="http://www.w3.org/2000/svg">
<path d="M258.698 87.7682C254.388 86.5486 246.514 82.3807 230.754 74.0448C217.126 66.8338 214.473 64.9866 212.295 61.3397C208.316 54.6733 210.933 50.3751 209.725 37.9542C208.742 27.8067 207.511 15.1371 199.305 7.29857C186.079 -5.32365 162.611 2.14785 161.107 2.65701C157.531 3.85292 142.446 8.87339 135.697 24.2071C135.247 25.2373 127.681 42.9984 135.792 53.4893C139.983 58.9123 144.992 58.0361 153.055 66.6917C156.489 70.3741 159.094 73.1686 160.089 77.0878C161.889 84.1331 157.271 89.9351 147.324 103.943C131.564 126.132 123.678 137.239 120.955 141.94C114.312 153.413 113.14 158.031 108.357 158.955C101.951 160.186 98.0907 153.046 81.715 143.301C72.7516 137.973 68.2757 135.297 63.5276 134.669C47.9096 132.597 30.5748 146.025 22.9139 161.725C20.4155 166.841 12.6717 182.731 21.0194 198.112C27.3068 209.704 41.0302 217.839 52.1132 216.134C57.927 215.234 60.6266 212.001 68.0507 212.416C69.5545 212.498 77.4049 212.937 82.1294 217.839C85.4093 221.237 86.9841 226.553 84.0121 246.387C80.8388 267.582 77.8667 269.358 74.3619 289.428C71.4846 305.863 72.574 309.829 68.181 313.595C60.9464 319.787 52.8473 313.464 36.6373 316.709C32.5641 317.526 15.1819 320.995 6.27766 334.695C-5.08944 352.195 4.99886 374.669 6.71577 378.505C12.9322 392.347 28.2541 411.375 43.7891 409.445C56.5179 407.859 68.631 392.312 76.5998 382.081C77.6181 380.779 80.1638 377.416 84.2134 373.39C90.5837 367.044 94.6451 363.006 99.6063 361.514C111.021 358.104 123.371 369.317 133.944 378.908C141.83 386.072 146.46 390.405 147.04 397.297C147.751 405.869 141.736 412.915 138.302 416.929C130.901 425.596 125.94 424.945 120.162 430.628C110.393 440.219 106.379 459.851 114.372 476.274C121.606 491.146 137.473 500.974 154.026 499.873C167.323 498.985 180.857 491.075 186.292 479.72C190.946 469.975 186.849 463.534 193.622 448.105C196.239 442.138 198.157 437.768 202.526 434.003C211.999 425.809 225.213 427.124 238.013 428.58C257.834 430.842 271.865 432.44 280.971 443.156C290.266 454.097 283.967 462.231 293.072 489.879C298.649 506.812 302.485 518.439 312.882 522.986C327.896 529.558 346.095 516.734 351.932 512.625C357.947 508.386 372.713 497.99 374.868 481.615C376.975 465.653 364.756 461.781 361.239 439.71C358.22 420.777 364.258 405.1 368.474 394.171C374.998 377.239 383.63 367.316 397.211 351.71C406.992 340.461 411.882 337.217 417.021 335.239C427.275 331.285 432.698 334.636 445.214 334.197C450.199 334.02 473.158 332.646 489.735 316.709C492.6 313.95 508.656 298.521 506.726 276.261C505.518 262.277 497.112 244.611 484.146 241.496C477.195 239.827 475.846 244.007 454.426 247.358C436.629 250.14 431.514 248.198 429.087 245.143C427.476 243.119 426.671 240.111 427.346 237.471C428.897 231.467 437.707 229.194 446.717 226.767C470.269 220.408 482.05 217.235 485.875 214.961C498.189 207.632 506.134 193.127 507.697 179.51C510.349 156.48 495.288 131.496 473.821 125.623C464.325 123.03 449.95 123.172 440.371 130.904C436.487 134.042 437.304 135.261 429.193 144.544C419.803 155.272 414.984 160.66 408.792 161.252C401.19 161.986 394.677 156.397 390.675 152.951C385.039 148.109 382.185 142.946 380.551 139.974C367.179 115.669 360.406 103.074 360.233 102.19C358.409 89.3075 365.028 88.7865 370.83 58.0598C374.891 36.5689 372.843 30.5656 371.931 28.2803C367.148 16.2265 354.667 7.93797 342.602 6.04346C319.098 2.36099 295.274 22.7034 293.64 40.0027C292.788 49.0253 298.211 54.5786 296.755 71.5464C296.127 78.8403 295.689 83.1385 292.421 86.5841C284.345 95.0739 266.797 90.089 258.698 87.7919V87.7682Z" fill="black"/>
</svg>
