<svg width="631" height="531" viewBox="0 0 631 531" fill="none" xmlns="http://www.w3.org/2000/svg">
<path d="M217.379 2C221.759 28.3005 235.244 146.172 235.778 158.924C236.656 179.963 238.402 181.72 234.9 206.263C234.076 212.032 229.587 217.819 224.384 219.413C207.206 224.675 110.678 89.0161 102.615 74.77C108.416 87.2501 160.155 167.809 172.698 188.739C180.581 201.889 195.478 229.068 188.464 246.601C177.884 273.074 17.5617 259.906 1 264.135C9.51614 261.817 147.069 282.819 163.938 285.174C170.074 286.034 211.686 292.564 234.022 330.756C239.244 339.686 240.855 367.19 234.9 396.507C232.339 409.114 187.848 522.095 184.093 528C193.876 520.048 270.82 391.245 292.721 384.226C312.305 377.959 311.817 378.548 328.641 379.843C357.583 382.061 426.119 504.417 432.889 513.093C430.717 507.55 374.552 387.477 382.959 364.935C385.059 359.302 390.209 331.045 435.522 321.98C461.804 316.718 576.966 309.409 630 310.587C619.149 308.893 523.824 299.719 505.606 297.436C484.583 294.81 463.225 290.734 439.025 281.66C425.006 276.398 404.861 265.005 398.725 246.592C385.747 207.64 485.977 129.255 489.832 122.988C483.95 125.551 394.344 201.889 382.082 209.777C357.755 225.427 339.365 224.775 323.392 222.927C302.558 220.518 288.757 206.689 276.087 194.001C245.552 163.407 221.243 23.5457 217.397 2.01811L217.379 2Z" fill="black" stroke="black" stroke-miterlimit="10"/>
</svg>
