<?xml version="1.0" encoding="UTF-8"?>
<svg id="Layer_1" data-name="Layer 1" xmlns="http://www.w3.org/2000/svg" viewBox="0 0 560.33 721.4">
  <defs>
    <style>
      .cls-1, .cls-2 {
        stroke-width: 0px;
      }

      .cls-3 {
        stroke: #000;
      }

      .cls-3, .cls-4 {
        fill: none;
        stroke-miterlimit: 10;
        stroke-width: 41px;
      }

      .cls-4 {
        stroke: #0000f4;
      }

      .cls-2 {
        fill: #0000f4;
      }
    </style>
  </defs>
  <g>
    <line class="cls-4" x1="160.62" y1="217.83" x2="160.62" y2="313.56"/>
    <polygon class="cls-2" points="120.12 285.94 160.62 437.06 201.12 285.94 120.12 285.94"/>
  </g>
  <g>
    <line class="cls-4" x1="240.45" y1="217.83" x2="240.45" y2="313.56"/>
    <polygon class="cls-2" points="199.95 285.94 240.45 437.06 280.95 285.94 199.95 285.94"/>
  </g>
  <g>
    <line class="cls-4" x1="320.27" y1="217.83" x2="320.27" y2="313.56"/>
    <polygon class="cls-2" points="279.77 285.94 320.27 437.06 360.77 285.94 279.77 285.94"/>
  </g>
  <g>
    <line class="cls-4" x1="400.1" y1="217.83" x2="400.1" y2="313.56"/>
    <polygon class="cls-2" points="359.6 285.94 400.1 437.06 440.6 285.94 359.6 285.94"/>
  </g>
  <g>
    <line class="cls-4" x1="80.8" y1="217.83" x2="80.8" y2="313.56"/>
    <polygon class="cls-2" points="40.3 285.94 80.8 437.06 121.29 285.94 40.3 285.94"/>
  </g>
  <g>
    <line class="cls-4" x1="479.93" y1="217.83" x2="479.93" y2="313.56"/>
    <polygon class="cls-2" points="439.43 285.94 479.93 437.06 520.42 285.94 439.43 285.94"/>
  </g>
  <g>
    <line class="cls-3" x1="200.28" y1="287.47" x2="200.28" y2="191.73"/>
    <polygon class="cls-1" points="240.78 219.36 200.28 68.23 159.78 219.36 240.78 219.36"/>
  </g>
  <g>
    <line class="cls-3" x1="280.16" y1="287.47" x2="280.16" y2="191.73"/>
    <polygon class="cls-1" points="320.66 219.36 280.16 68.23 239.66 219.36 320.66 219.36"/>
  </g>
  <g>
    <line class="cls-3" x1="360.05" y1="287.47" x2="360.05" y2="191.73"/>
    <polygon class="cls-1" points="400.55 219.36 360.05 68.23 319.55 219.36 400.55 219.36"/>
  </g>
  <g>
    <line class="cls-3" x1="439.94" y1="287.47" x2="439.94" y2="191.73"/>
    <polygon class="cls-1" points="480.44 219.36 439.94 68.23 399.44 219.36 480.44 219.36"/>
  </g>
  <g>
    <line class="cls-3" x1="40.5" y1="287.47" x2="40.5" y2="191.73"/>
    <polygon class="cls-1" points="81 219.36 40.5 68.23 0 219.36 81 219.36"/>
  </g>
  <g>
    <line class="cls-3" x1="120.39" y1="287.47" x2="120.39" y2="191.73"/>
    <polygon class="cls-1" points="160.89 219.36 120.39 68.23 79.89 219.36 160.89 219.36"/>
  </g>
  <g>
    <line class="cls-3" x1="519.83" y1="287.47" x2="519.83" y2="191.73"/>
    <polygon class="cls-1" points="560.33 219.36 519.83 68.23 479.33 219.36 560.33 219.36"/>
  </g>
  <g>
    <line class="cls-4" x1="160.43" x2="160.43" y2="95.73"/>
    <polygon class="cls-2" points="119.93 68.11 160.43 219.23 200.92 68.11 119.93 68.11"/>
  </g>
  <g>
    <line class="cls-4" x1="240.25" x2="240.25" y2="95.73"/>
    <polygon class="cls-2" points="199.75 68.11 240.25 219.23 280.75 68.11 199.75 68.11"/>
  </g>
  <g>
    <line class="cls-4" x1="320.08" x2="320.08" y2="95.73"/>
    <polygon class="cls-2" points="279.58 68.11 320.08 219.23 360.58 68.11 279.58 68.11"/>
  </g>
  <g>
    <line class="cls-4" x1="399.9" x2="399.9" y2="95.73"/>
    <polygon class="cls-2" points="359.4 68.11 399.9 219.23 440.4 68.11 359.4 68.11"/>
  </g>
  <g>
    <line class="cls-4" x1="80.6" x2="80.6" y2="95.73"/>
    <polygon class="cls-2" points="40.1 68.11 80.6 219.23 121.1 68.11 40.1 68.11"/>
  </g>
  <g>
    <line class="cls-4" x1="479.73" x2="479.73" y2="95.73"/>
    <polygon class="cls-2" points="439.23 68.11 479.73 219.23 520.23 68.11 439.23 68.11"/>
  </g>
</svg>