<?xml version="1.0" encoding="UTF-8"?>
<svg id="Layer_1" data-name="Layer 1" xmlns="http://www.w3.org/2000/svg" viewBox="0 0 560.33 721.4">
  <defs>
    <style>
      .cls-1, .cls-2 {
        stroke-width: 0px;
      }

      .cls-3 {
        stroke: #000;
      }

      .cls-3, .cls-4 {
        fill: none;
        stroke-miterlimit: 10;
        stroke-width: 41px;
      }

      .cls-4 {
        stroke: #0000f4;
      }

      .cls-2 {
        fill: #0000f4;
      }
    </style>
  </defs>
  <g>
    <line class="cls-3" x1="200.28" y1="721.4" x2="200.28" y2="625.67"/>
    <polygon class="cls-1" points="240.78 653.29 200.28 502.17 159.78 653.29 240.78 653.29"/>
  </g>
  <g>
    <line class="cls-3" x1="280.16" y1="721.4" x2="280.16" y2="625.67"/>
    <polygon class="cls-1" points="320.66 653.29 280.16 502.17 239.66 653.29 320.66 653.29"/>
  </g>
  <g>
    <line class="cls-3" x1="360.05" y1="721.4" x2="360.05" y2="625.67"/>
    <polygon class="cls-1" points="400.55 653.29 360.05 502.17 319.55 653.29 400.55 653.29"/>
  </g>
  <g>
    <line class="cls-3" x1="439.94" y1="721.4" x2="439.94" y2="625.67"/>
    <polygon class="cls-1" points="480.44 653.29 439.94 502.17 399.44 653.29 480.44 653.29"/>
  </g>
  <g>
    <line class="cls-3" x1="40.5" y1="721.4" x2="40.5" y2="625.67"/>
    <polygon class="cls-1" points="81 653.29 40.5 502.17 0 653.29 81 653.29"/>
  </g>
  <g>
    <line class="cls-3" x1="120.39" y1="721.4" x2="120.39" y2="625.67"/>
    <polygon class="cls-1" points="160.89 653.29 120.39 502.17 79.89 653.29 160.89 653.29"/>
  </g>
  <g>
    <line class="cls-3" x1="519.83" y1="721.4" x2="519.83" y2="625.67"/>
    <polygon class="cls-1" points="560.33 653.29 519.83 502.17 479.33 653.29 560.33 653.29"/>
  </g>
  <g>
    <line class="cls-4" x1="160.43" y1="435.02" x2="160.43" y2="530.75"/>
    <polygon class="cls-2" points="119.93 503.13 160.43 654.25 200.92 503.13 119.93 503.13"/>
  </g>
  <g>
    <line class="cls-4" x1="240.25" y1="435.02" x2="240.25" y2="530.75"/>
    <polygon class="cls-2" points="199.75 503.13 240.25 654.25 280.75 503.13 199.75 503.13"/>
  </g>
  <g>
    <line class="cls-4" x1="320.08" y1="435.02" x2="320.08" y2="530.75"/>
    <polygon class="cls-2" points="279.58 503.13 320.08 654.25 360.58 503.13 279.58 503.13"/>
  </g>
  <g>
    <line class="cls-4" x1="399.9" y1="435.02" x2="399.9" y2="530.75"/>
    <polygon class="cls-2" points="359.4 503.13 399.9 654.25 440.4 503.13 359.4 503.13"/>
  </g>
  <g>
    <line class="cls-4" x1="80.6" y1="435.02" x2="80.6" y2="530.75"/>
    <polygon class="cls-2" points="40.1 503.13 80.6 654.25 121.1 503.13 40.1 503.13"/>
  </g>
  <g>
    <line class="cls-4" x1="479.73" y1="435.02" x2="479.73" y2="530.75"/>
    <polygon class="cls-2" points="439.23 503.13 479.73 654.25 520.23 503.13 439.23 503.13"/>
  </g>
  <g>
    <line class="cls-3" x1="200.28" y1="504.55" x2="200.28" y2="408.82"/>
    <polygon class="cls-1" points="240.78 436.44 200.28 285.32 159.78 436.44 240.78 436.44"/>
  </g>
  <g>
    <line class="cls-3" x1="280.16" y1="504.55" x2="280.16" y2="408.82"/>
    <polygon class="cls-1" points="320.66 436.44 280.16 285.32 239.66 436.44 320.66 436.44"/>
  </g>
  <g>
    <line class="cls-3" x1="360.05" y1="504.55" x2="360.05" y2="408.82"/>
    <polygon class="cls-1" points="400.55 436.44 360.05 285.32 319.55 436.44 400.55 436.44"/>
  </g>
  <g>
    <line class="cls-3" x1="439.94" y1="504.55" x2="439.94" y2="408.82"/>
    <polygon class="cls-1" points="480.44 436.44 439.94 285.32 399.44 436.44 480.44 436.44"/>
  </g>
  <g>
    <line class="cls-3" x1="40.5" y1="504.55" x2="40.5" y2="408.82"/>
    <polygon class="cls-1" points="81 436.44 40.5 285.32 0 436.44 81 436.44"/>
  </g>
  <g>
    <line class="cls-3" x1="120.39" y1="504.55" x2="120.39" y2="408.82"/>
    <polygon class="cls-1" points="160.89 436.44 120.39 285.32 79.89 436.44 160.89 436.44"/>
  </g>
  <g>
    <line class="cls-3" x1="519.83" y1="504.55" x2="519.83" y2="408.82"/>
    <polygon class="cls-1" points="560.33 436.44 519.83 285.32 479.33 436.44 560.33 436.44"/>
  </g>
</svg>