<?xml version="1.0" encoding="UTF-8"?>
<svg id="Layer_1" data-name="Layer 1" xmlns="http://www.w3.org/2000/svg" viewBox="0 0 960 480">
  <defs>
    <style>
      .cls-1, .cls-2 {
        stroke-width: 0px;
      }

      .cls-2 {
        fill: #fff;
      }
    </style>
  </defs>
  <rect class="cls-2" x="0" y=".86" width="960" height="480.86"/>
  <g>
    <polygon class="cls-1" points="500.06 428.12 547.55 428.12 547.55 481.72 642.62 481.72 642.62 428.12 690.02 428.25 595.04 310.62 500.06 428.12"/>
    <polygon class="cls-1" points="716.85 112.97 683.53 184.21 775.11 175.05 774.65 195.35 860.94 195.35 769.68 0 729.89 85.09 801.85 97.86 716.85 112.97"/>
    <polygon class="cls-1" points="847.19 368.98 847.19 330.82 889.79 331.02 878.11 236.07 774.65 236.07 774.65 256.41 655.34 244.46 614.96 330.82 692.32 330.82 692.32 481.72 847.19 481.72 847.19 423.39 751.3 396.17 847.19 368.98"/>
    <polygon class="cls-1" points="908.32 481.72 916.33 416.51 900.3 416.51 908.32 481.72"/>
    <polygon class="cls-1" points="949 150.53 928.7 150.91 928.7 0 887.98 0 887.98 150.91 867.64 150.91 873.1 195.35 943.49 195.35 949 150.53"/>
    <polygon class="cls-1" points="924.4 331.19 889.79 331.02 892.86 356.03 894.78 355.49 894.66 370.66 895.29 375.79 921.33 375.79 938.49 236.07 879.97 236.07 924.4 331.19"/>
    <polygon class="cls-1" points="592.74 135.02 716.85 112.97 729.89 85.09 697.38 79.32 697.38 108.4 656.66 108.4 656.66 74.71 636.32 74.71 639.45 69.03 555.01 54.04 555.01 135.16 592.74 135.02"/>
    <polygon class="cls-1" points="127.45 146.79 181.53 109.1 188.96 48.84 82.51 48.84 94.58 146.79 127.45 146.79"/>
    <polygon class="cls-1" points="267.97 48.84 267.67 142.06 277.71 142.06 273.34 135.16 367.17 135.16 367.17 20.7 250.57 0 251.19 48.84 200.8 48.84 206.11 91.96 267.97 48.84"/>
    <polygon class="cls-1" points="0 48.84 0 146.79 58.37 146.79 70.46 48.84 0 48.84"/>
    <polygon class="cls-1" points="389.77 329.04 389.77 322.12 388.47 329.04 389.77 329.04"/>
    <polygon class="cls-1" points="154.2 330.49 176.87 146.79 127.45 146.79 97.19 167.89 115.47 316.23 174.54 357.46 174.54 330.49 154.2 330.49"/>
    <polygon class="cls-1" points="339.91 262.68 339.91 240.26 305.58 186.06 251.19 195.72 251.19 146.79 212.87 146.79 235.56 330.87 215.26 330.49 215.26 385.87 267.67 422.45 267.67 329.04 331.99 329.04 319.57 262.68 339.91 262.68"/>
    <polygon class="cls-1" points="0 235.64 43.65 266.1 51.87 199.48 0 235.64"/>
    <polygon class="cls-1" points="94.58 146.79 58.37 146.79 51.87 199.48 97.19 167.89 94.58 146.79"/>
    <polygon class="cls-1" points="35.81 329.63 56.15 329.63 56.15 480 96.87 480 96.87 329.63 117.17 330.01 115.47 316.23 43.65 266.1 35.81 329.63"/>
    <polygon class="cls-1" points="76.49 0 70.46 48.84 82.51 48.84 76.49 0"/>
    <polygon class="cls-1" points="174.54 480.86 215.26 480.86 215.26 385.87 174.54 357.46 174.54 480.86"/>
    <polygon class="cls-1" points="194.88 .86 188.96 48.84 200.8 48.84 194.88 .86"/>
    <polygon class="cls-1" points="181.53 109.1 176.87 146.79 212.87 146.79 206.11 91.96 181.53 109.1"/>
    <polygon class="cls-1" points="389.77 322.12 390.22 319.7 389.77 318.98 389.77 322.12"/>
    <polygon class="cls-1" points="360.25 480 388.47 329.04 331.99 329.04 360.25 480"/>
    <polygon class="cls-1" points="555.01 0 367.17 0 367.17 20.7 555.01 54.04 555.01 0"/>
    <polygon class="cls-1" points="389.77 262.57 400.93 262.44 390.22 319.7 461 431.46 583.83 237.3 389.77 217.88 389.77 262.57"/>
    <polygon class="cls-1" points="592.74 135.02 389.77 171.1 389.77 213.58 612.95 191.26 648.66 134.82 592.74 135.02"/>
    <polygon class="cls-1" points="339.91 163.55 380.63 163.55 380.63 172.72 389.77 171.1 389.77 142.06 277.71 142.06 305.58 186.06 339.91 179.96 339.91 163.55"/>
    <polygon class="cls-1" points="380.63 216.96 368.32 215.73 380.63 214.5 380.63 172.72 339.91 179.96 339.91 240.26 389.77 318.98 389.77 262.57 380.63 262.68 380.63 216.96"/>
    <polygon class="cls-1" points="873.1 195.35 860.94 195.35 877.45 230.68 873.1 195.35"/>
    <polygon class="cls-1" points="960 236.07 960 195.35 943.49 195.35 938.49 236.07 960 236.07"/>
    <polygon class="cls-1" points="612.95 191.26 583.83 237.3 655.34 244.46 683.53 184.21 612.95 191.26"/>
    <polygon class="cls-1" points="877.45 230.68 878.11 236.07 879.97 236.07 877.45 230.68"/>
    <polygon class="cls-1" points="380.63 216.96 389.77 217.88 389.77 213.58 380.63 214.5 380.63 216.96"/>
    <polygon class="cls-1" points="894.62 375.79 894.66 370.66 892.86 356.03 847.19 368.98 847.19 423.39 894.62 436.85 894.62 416.51 900.3 416.51 895.29 375.79 894.62 375.79"/>
    <polygon class="cls-1" points="960 375.79 921.33 375.79 916.33 416.51 960 416.51 960 375.79"/>
    <polygon class="cls-1" points="697.38 74.71 717.68 74.8 677 .86 639.45 69.03 697.38 79.32 697.38 74.71"/>
  </g>
</svg>